<?xml version="1.0" encoding="UTF-8"?>
<svg id="Layer_1" data-name="Layer 1" xmlns="http://www.w3.org/2000/svg" viewBox="0 0 155.74 156.09">
  <defs>
    <style>
      .cls-1 {
        fill: #c69937;
      }
    </style>
  </defs>
  <path class="cls-1" d="m82.75,100.52c-2.57-1.13-5.35-1.68-8.16-1.68h-27.4s0-21.74,0-21.74l28.54-23.88-3.89-3.63-30.47,25.51v26.79h33.09c3.09,0,6.13.84,8.77,2.45,8.26,5.05,13.3,12.82,12.99,20.5-.45,11.1-8.52,19.43-17.76,21.14-23.4,4.33-62.95-28.74-64.45-66.16-1.14-28.46,17.85-56.18,47.57-70.26C28.55,21.06,6.61,49.84,7.01,79.82c.53,39.54,43.28,73.14,70.84,68.91,11.41-1.75,23.55-10.94,23.85-24.15.21-9.33-7.24-18.92-18.96-24.05Z"/>
  <path class="cls-1" d="m84.75,7c-15.54,0-22.4,10.76-22.4,19.86,0,11.17,14.43,21.73,19.79,26.58,5.36,4.85,25.54,22.31,25.54,22.31v23.08h-11.74v3.05h19.19v-26.17l-39.57-34.33c-1.97-1.74-8.01-8.14-7.77-14.37.32-8.54,5.3-16.11,16.98-16.11,26.02,0,55.47,28.65,56.89,65.76,1.06,27.93-17.2,55-45.71,69.68,0,0,0,0,0,0,31.48-12.35,52.6-40.67,52.78-69.68.25-39.92-32.72-69.68-63.98-69.68Z"/>
</svg>